<svg width="121" height="29" viewBox="0 0 121 29" fill="none" xmlns="http://www.w3.org/2000/svg">
<path d="M89.8637 0.113418C88.8788 0.158901 87.889 0.153444 86.9031 0.115383C86.3763 0.0950838 86.1976 0.228616 86.2015 0.79414C86.2287 4.41394 86.2169 8.03425 86.2114 11.6542C86.2109 11.8496 86.2899 12.0766 86.0836 12.269C85.6096 11.8159 85.2137 11.3209 84.7032 10.945C81.3397 8.46682 76.1875 9.30784 73.6704 12.7731C71.7369 15.4344 71.375 18.4019 72.1753 21.5197C73.3232 25.9902 77.3191 28.5737 81.8445 27.7904C83.7043 27.469 85.2288 26.5357 86.3899 24.9506C86.3899 25.641 86.4037 26.3325 86.3845 27.0229C86.3746 27.3587 86.4901 27.47 86.8263 27.4645C87.912 27.4472 88.9983 27.4437 90.0842 27.4655C90.4629 27.4735 90.5557 27.3251 90.5423 26.9794C90.5211 26.4062 90.5369 25.8319 90.5369 25.2582C90.5369 17.1086 90.5407 8.95878 90.5482 0.808794C90.5495 0.272196 90.4189 0.0876634 89.8637 0.113418ZM84.9002 22.5848C83.508 24.0849 81.8018 24.5997 79.8507 24.0537C77.9174 23.5126 76.8718 22.0927 76.4097 20.1915C76.295 19.6899 76.2439 19.1758 76.2577 18.6613C76.2831 16.8081 76.861 15.1889 78.4082 14.0761C80.2166 12.7743 82.6392 12.9361 84.3824 14.3936C86.7495 16.3741 86.9979 20.3265 84.9002 22.5848Z" fill="#151515"/>
<path d="M110.417 16.8674C110.065 14.6521 109.237 12.6847 107.441 11.2475C105.702 9.85569 103.663 9.40783 101.494 9.5486C98.7418 9.72717 96.4179 10.8083 94.7384 13.0626C93.2257 15.0925 92.7564 17.4085 92.9848 19.8972C93.2524 22.8025 94.537 25.0957 97.0754 26.5918C99.3538 27.9346 101.828 28.1893 104.394 27.7387C106.438 27.3801 108.11 26.3741 109.437 24.7742C109.707 24.4488 109.728 24.2477 109.359 23.9759C108.628 23.4383 107.918 22.8725 107.229 22.2785C106.947 22.0357 106.814 22.0569 106.582 22.3344C105.124 24.0763 103.221 24.5219 101.081 24.1079C99.1775 23.74 97.6643 22.2587 97.3641 20.6211C97.2886 20.2096 97.3518 20.083 97.8 20.0883C99.833 20.1125 101.867 20.0987 103.9 20.0987C105.874 20.0987 107.849 20.067 109.822 20.117C110.46 20.1333 110.582 19.9162 110.553 19.3504C110.511 18.5227 110.547 17.6918 110.417 16.8674ZM105.46 17.0098C104.198 17.0103 102.936 17.0103 101.674 17.0098C100.373 17.0098 99.071 16.996 97.7701 17.0182C97.3643 17.0251 97.2923 16.9198 97.3579 16.5187C97.7142 14.348 99.7342 12.8256 102.261 12.8603C104.273 12.8875 105.668 14.0196 106.092 15.9697C106.114 16.0656 106.131 16.1627 106.142 16.2605C106.223 17.0088 106.222 17.0093 105.46 17.0098H105.46Z" fill="#151515"/>
<path d="M69.5361 15.8553C69.38 12.8172 67.5687 10.6064 64.6332 9.84769C63.1018 9.45154 61.5481 9.42134 59.9985 9.67642C58.1413 9.98224 56.4405 10.6761 54.9589 11.8725C54.5985 12.1638 54.4401 12.3774 54.8405 12.7854C55.3612 13.3257 55.8483 13.8975 56.2988 14.4977C56.5915 14.881 56.8014 14.9033 57.183 14.5897C58.5254 13.4863 60.0657 12.9111 61.8232 12.9804C64.0112 13.0674 65.2904 14.1827 65.4705 16.1545C65.5011 16.4849 65.4592 16.6699 65.0526 16.661C63.6707 16.6313 62.2934 16.7357 60.9229 16.8964C58.9708 17.1244 57.1072 17.5923 55.4207 18.7006C52.841 20.396 53.1683 24.2906 54.6973 25.8789C57.0457 28.3202 61.8178 28.6579 64.4067 26.4752C64.7929 26.1498 65.1032 25.7517 65.519 25.2378C65.519 25.9351 65.5352 26.4796 65.513 27.0227C65.4997 27.358 65.6152 27.4698 65.9514 27.4643C67.0168 27.4471 68.0823 27.4472 69.148 27.4649C69.5005 27.4708 69.6338 27.3729 69.6284 27.001C69.5731 23.2859 69.7262 19.5691 69.5361 15.8553ZM65.4019 20.8234C65.2637 23.0203 63.679 24.4852 61.3187 24.5978C60.5436 24.6341 59.7793 24.576 59.0672 24.2398C57.5665 23.5312 57.4086 21.6523 58.7583 20.6789C59.6855 20.0108 60.7618 19.7759 61.8602 19.6399C62.6205 19.5459 63.3911 19.5325 63.7871 19.5067C65.4854 19.5009 65.4854 19.5009 65.4019 20.8234Z" fill="#151515"/>
<path d="M43.4471 19.5503C43.4471 17.4938 43.4417 15.4374 43.4526 13.3809C43.454 13.0346 43.417 12.8433 42.984 12.8457C40.0036 12.864 37.0232 12.8596 34.043 12.8497C33.7078 12.8486 33.5957 12.956 33.6022 13.2913C33.62 14.2003 33.6288 15.1109 33.5992 16.0194C33.5849 16.4457 33.7344 16.5522 34.1398 16.5459C35.5803 16.5241 37.0215 16.5464 38.4625 16.5316C38.8179 16.5276 38.9923 16.5855 38.9873 17.0073C38.9661 18.9055 38.9711 20.8037 38.9854 22.7019C38.9878 23.0144 38.8768 23.1594 38.5919 23.2553C36.4034 23.9952 34.163 24.2489 31.89 23.8276C29.0224 23.2962 26.9262 21.7012 25.693 19.0279C25.5508 18.7193 25.4397 18.6738 25.1415 18.8672C23.9824 19.6179 22.8069 20.344 21.6294 21.0661C21.3698 21.2253 21.3342 21.3673 21.4922 21.6307C21.9622 22.4119 22.4746 23.1622 23.0973 23.8273C25.5153 26.4105 28.5263 27.7612 32.0201 28.0693C35.7959 28.4019 39.4497 27.9135 42.952 26.407C43.3464 26.2369 43.46 26.0119 43.456 25.6009C43.4367 23.584 43.4471 21.5671 43.4471 19.5503Z" fill="#151515"/>
<path d="M51.313 0.738541C51.3079 0.639849 51.3083 0.540952 51.3141 0.442298C51.3536 0.097084 51.1874 0.00358077 50.8653 0.00757718C49.7796 0.0214061 48.6934 0.0392944 47.6089 0.00123328C47.1019 -0.016592 46.9893 0.157031 46.9908 0.63825C47.0086 5.00836 47.0012 9.37791 47.0012 13.748C47.0012 18.0786 47.0166 22.4091 46.9845 26.7391C46.98 27.3671 47.1701 27.4988 47.7457 27.4711C48.7108 27.4246 49.681 27.4236 50.6458 27.4716C51.2031 27.4993 51.3251 27.313 51.3242 26.7801C51.3081 18.0995 51.3043 9.41897 51.313 0.738541Z" fill="#151515"/>
<path d="M24.8994 10.8773C25.2476 11.0994 25.3343 11.0034 25.4641 10.6716C28.0175 4.13328 35.9615 3.80158 39.9342 7.47911C40.2008 7.72587 40.3188 7.67944 40.5291 7.446C41.1902 6.71154 41.8695 5.9939 42.5444 5.27233C43.477 4.27576 43.4844 4.26732 42.3198 3.49284C39.6978 1.74996 36.7618 1.13521 33.1707 1.08573C32.6558 1.05852 31.6561 1.18463 30.6662 1.3585C30.026 1.47224 29.3943 1.62955 28.7754 1.82932C25.4588 2.8996 22.8896 4.89127 21.2308 8.00461C21.0274 8.38592 21.0704 8.57242 21.454 8.79298C22.6181 9.46074 23.7665 10.1555 24.8994 10.8773Z" fill="#151515"/>
<path d="M120.469 13.794C120.411 12.7702 120.341 11.7464 120.251 10.7247C120.233 10.512 120.414 10.1831 119.987 10.1208C119.611 10.0659 119.474 10.2548 119.365 10.5797C119.059 11.4897 118.719 12.3876 118.346 13.4216C117.971 12.34 117.632 11.3948 117.321 10.4408C117.212 10.1046 116.981 10.1065 116.717 10.1272C116.41 10.1509 116.485 10.3948 116.469 10.5758C116.427 11.0669 116.393 11.559 116.359 12.0511C116.315 12.6807 116.271 13.3108 116.233 13.9409C116.223 14.0962 116.2 14.2658 116.444 14.2787C116.653 14.29 116.721 14.1753 116.74 13.9973C116.76 13.8006 116.789 13.6056 116.801 13.4092C116.849 12.5973 116.891 11.7845 116.944 10.833C117.324 11.9596 117.657 12.9454 117.988 13.9315C118.039 14.0809 118.066 14.2445 118.269 14.2643C118.504 14.2876 118.566 14.1189 118.628 13.9463C118.681 13.7975 118.74 13.651 118.793 13.5027C119.097 12.6565 119.4 11.8101 119.702 10.9636C119.83 11.9329 119.87 12.8793 119.916 13.8245C119.926 14.0376 119.904 14.2876 120.236 14.277C120.615 14.2658 120.479 13.9735 120.469 13.794Z" fill="#151515"/>
<path d="M115.545 10.123C114.737 10.1221 113.929 10.1221 113.121 10.123C112.965 10.1236 112.794 10.1052 112.789 10.3461C112.785 10.579 112.942 10.5731 113.106 10.5904C114.071 10.6933 114.07 10.6953 114.07 11.68C114.07 11.9168 114.07 12.1536 114.071 12.3905C114.071 12.8841 114.068 13.3777 114.072 13.8712C114.073 14.0631 114.031 14.2921 114.347 14.2753C114.624 14.2605 114.575 14.0518 114.576 13.8846C114.581 13.1344 114.579 12.3841 114.579 11.6338C114.579 10.6823 114.578 10.6808 115.53 10.5897C115.688 10.5744 115.854 10.5947 115.862 10.3607C115.87 10.123 115.707 10.1235 115.545 10.123Z" fill="#151515"/>
<path d="M17.7969 7.79297C21.9336 10.2035 25.9818 12.5622 30.116 14.9713C26.0036 17.3685 21.9518 19.7301 17.7969 22.152C17.7969 21.6881 17.7821 21.3068 17.8008 20.9277C17.8211 20.5286 17.6813 20.3378 17.2573 20.3673C16.9026 20.3891 16.547 20.3886 16.1924 20.3659C15.6349 20.3344 15.1104 20.0908 14.7261 19.6849C14.3418 19.279 14.1268 18.7415 14.1248 18.1821C14.1246 17.6228 14.3373 17.0845 14.7196 16.6769C15.1019 16.2694 15.6249 16.0232 16.1821 15.9886C16.5361 15.9674 16.8925 15.9713 17.247 15.9842C17.5294 15.9951 17.7061 15.9278 17.6923 15.5979C17.6775 15.2427 17.5008 15.1412 17.1591 15.1434C15.3438 15.1568 13.5285 15.1642 11.7135 15.1444C10.1594 15.1277 9.12725 13.6624 9.62882 12.2273C9.93587 11.3475 10.7369 10.7688 11.7146 10.762C13.4312 10.7501 15.1482 10.76 16.8648 10.7575C17.7133 10.7561 17.7969 10.667 17.7969 9.80995V7.79297Z" fill="#FF6F00"/>
<path d="M8.83195 19.4222C8.14276 19.4222 7.45306 19.4366 6.76438 19.4187C5.69798 19.3915 4.89007 18.57 4.88443 17.5347C4.88127 17.2873 4.92695 17.0417 5.01885 16.812C5.11075 16.5824 5.24705 16.3732 5.41992 16.1964C5.59279 16.0197 5.79883 15.879 6.02618 15.7823C6.25352 15.6856 6.49771 15.6349 6.74469 15.6331C8.14232 15.6098 9.54046 15.6093 10.9391 15.6316C11.186 15.6311 11.4306 15.6795 11.6588 15.7739C11.8871 15.8684 12.0944 16.007 12.2691 16.1818C12.4437 16.3567 12.5822 16.5644 12.6766 16.793C12.7709 17.0216 12.8193 17.2666 12.819 17.514C12.8239 18.5733 12.0014 19.398 10.9 19.4196C10.2108 19.4334 9.52159 19.4222 8.83195 19.4222Z" fill="#FF6F00"/>
<path d="M3.46383 15.1458C3.07035 15.1464 2.67593 15.1649 2.2834 15.1424C1.79664 15.1149 1.33931 14.9001 1.00699 14.5427C0.674675 14.1854 0.493093 13.7132 0.500201 13.2248C0.503519 12.7461 0.689249 12.2867 1.01942 11.9406C1.34959 11.5945 1.79926 11.3878 2.27649 11.3628C3.06168 11.3281 3.85136 11.3286 4.63731 11.3623C5.12482 11.3861 5.58384 11.5995 5.91682 11.957C6.24981 12.3145 6.43052 12.788 6.42056 13.2769C6.41439 13.7549 6.22786 14.2129 5.89846 14.5589C5.56905 14.9048 5.12116 15.1131 4.64478 15.1419C4.25225 15.166 3.85801 15.1458 3.46383 15.1458Z" fill="#FF6F00"/>
</svg>
